<svg width="50" height="50" viewBox="0 0 50 50" fill="none" xmlns="http://www.w3.org/2000/svg">
<path d="M41.6667 6.25H8.33333C7.18125 6.25 6.25 7.18333 6.25 8.33333V41.6667C6.25 42.8167 7.18125 43.75 8.33333 43.75H41.6667C42.8187 43.75 43.75 42.8167 43.75 41.6667V8.33333C43.75 7.18333 42.8187 6.25 41.6667 6.25ZM17.3729 38.2021H11.8062V20.3062H17.3729V38.2021ZM14.5896 17.8625C12.8062 17.8625 11.3646 16.4167 11.3646 14.6375C11.3646 12.8583 12.8042 11.4125 14.5896 11.4125C16.3687 11.4125 17.8146 12.8562 17.8146 14.6375C17.8146 16.4187 16.3687 17.8625 14.5896 17.8625ZM38.2042 38.2021H32.6437V29.5C32.6437 27.425 32.6062 24.7563 29.7521 24.7563C26.8562 24.7563 26.4167 27.0187 26.4167 29.3542V38.2042H20.8604V20.3083H26.1937V22.7542H26.2708C27.0104 21.3479 28.8271 19.8646 31.5292 19.8646C37.1625 19.8646 38.2021 23.5687 38.2021 28.3896V38.2021H38.2042Z" fill="#CACAFF"/>
</svg>
