<svg width="50" height="50" viewBox="0 0 50 50" fill="none" xmlns="http://www.w3.org/2000/svg">
<path d="M41.6667 6.25H8.33333C7.18125 6.25 6.25 7.18333 6.25 8.33333V41.6667C6.25 42.8167 7.18125 43.75 8.33333 43.75H26.2812V29.25H21.4104V23.5729H26.2812V19.4062C26.2812 14.5625 29.2396 11.9229 33.5729 11.9229C35.0292 11.9187 36.4875 11.9937 37.9375 12.1458V17.1875H34.9479C32.5979 17.1875 32.1396 18.3083 32.1396 19.9479V23.5625H37.7583L37.0292 29.2396H32.1375V43.75H41.6667C42.8187 43.75 43.75 42.8167 43.75 41.6667V8.33333C43.75 7.18333 42.8187 6.25 41.6667 6.25Z" fill="#CACAFF"/>
</svg>
