<svg width="50" height="50" viewBox="0 0 50 50" fill="none" xmlns="http://www.w3.org/2000/svg">
<path d="M24.9979 15.3687C19.6771 15.3687 15.3666 19.6812 15.3666 25C15.3666 30.3208 19.6771 34.6333 24.9979 34.6333C30.3146 34.6333 34.6291 30.3208 34.6291 25C34.6291 19.6812 30.3146 15.3687 24.9979 15.3687ZM24.9979 31.2583C21.5416 31.2583 18.7396 28.4562 18.7396 25.0021C18.7396 21.5458 21.5416 18.7458 24.9979 18.7458C28.4541 18.7458 31.2521 21.5458 31.2521 25.0021C31.2521 28.4562 28.4541 31.2583 24.9979 31.2583Z" fill="#CACAFF"/>
<path d="M35.0125 17.2604C36.2529 17.2604 37.2584 16.2549 37.2584 15.0146C37.2584 13.7742 36.2529 12.7687 35.0125 12.7687C33.7722 12.7687 32.7667 13.7742 32.7667 15.0146C32.7667 16.2549 33.7722 17.2604 35.0125 17.2604Z" fill="#CACAFF"/>
<path d="M42.7771 12.7313C41.8 10.2125 39.8104 8.22085 37.2917 7.24794C35.8354 6.70002 34.2959 6.40627 32.7375 6.37294C30.7313 6.28544 30.0959 6.26044 25.0084 6.26044C19.9209 6.26044 19.2688 6.26044 17.2792 6.37294C15.725 6.40419 14.1854 6.69794 12.7292 7.24794C10.2084 8.22085 8.21878 10.2125 7.24378 12.7313C6.69586 14.1896 6.40211 15.7271 6.37086 17.2854C6.28128 19.2896 6.2542 19.925 6.2542 25.0146C6.2542 30.1021 6.2542 30.75 6.37086 32.7438C6.40211 34.3021 6.69586 35.8396 7.24378 37.3C8.22086 39.8167 10.2104 41.8084 12.7313 42.7834C14.1813 43.35 15.7209 43.6709 17.2834 43.7209C19.2896 43.8084 19.925 43.8354 25.0125 43.8354C30.1 43.8354 30.7521 43.8354 32.7417 43.7209C34.2979 43.6896 35.8375 43.3938 37.2959 42.8479C39.8146 41.8709 41.8042 39.8813 42.7813 37.3625C43.3292 35.9042 43.6229 34.3667 43.6542 32.8084C43.7438 30.8042 43.7709 30.1688 43.7709 25.0792C43.7709 19.9896 43.7709 19.3438 43.6542 17.35C43.6271 15.7709 43.3354 14.2063 42.7771 12.7313ZM40.2396 32.5896C40.225 33.7896 40.0084 34.9792 39.5917 36.1063C38.9563 37.7459 37.6625 39.0417 36.025 39.6709C34.9104 40.0854 33.7354 40.3021 32.5459 40.3188C30.5667 40.4104 30.0084 40.4334 24.9334 40.4334C19.8542 40.4334 19.3354 40.4334 17.3188 40.3188C16.1334 40.3042 14.9542 40.0854 13.8417 39.6709C12.1979 39.0438 10.8959 37.7479 10.2604 36.1063C9.85211 34.9938 9.63128 33.8167 9.61253 32.6292C9.52295 30.65 9.50211 30.0917 9.50211 25.0167C9.50211 19.9396 9.50211 19.4209 9.61253 17.4021C9.62711 16.2021 9.84378 15.0146 10.2604 13.8875C10.8959 12.2438 12.1979 10.95 13.8417 10.3209C14.9542 9.90835 16.1334 9.6896 17.3188 9.67294C19.3 9.58335 19.8563 9.55835 24.9334 9.55835C30.0104 9.55835 30.5313 9.55835 32.5459 9.67294C33.7354 9.68752 34.9104 9.90627 36.025 10.3209C37.6625 10.9521 38.9563 12.2479 39.5917 13.8875C40 15 40.2209 16.1771 40.2396 17.3646C40.3292 19.3459 40.3521 19.9021 40.3521 24.9792C40.3521 30.0542 40.3521 30.6 40.2625 32.5917H40.2396V32.5896Z" fill="#CACAFF"/>
</svg>
